<?xml version="1.0" encoding="utf-8"?>
<!-- Generator: Adobe Illustrator 22.1.0, SVG Export Plug-In . SVG Version: 6.00 Build 0)  -->
<svg version="1.1" id="Layer_1" xmlns="http://www.w3.org/2000/svg" xmlns:xlink="http://www.w3.org/1999/xlink" x="0px" y="0px"
	 viewBox="0 0 191 191" style="enable-background:new 0 0 191 191;" xml:space="preserve">
<style type="text/css">
	.st0{fill:#FFFFFF;}
	.st1{opacity:0.3;fill:url(#);}
	.st2{fill:#F8AD1A;}
	.st3{fill:#E8E7E7;}
	.st4{opacity:0.2;fill:url(#);}
	.st5{fill:#1C272E;}
	.st6{fill:none;stroke:#F8AD1A;stroke-width:3;stroke-miterlimit:10;}
	.st7{fill:none;stroke:#F8AD1A;stroke-width:4;stroke-miterlimit:10;}
	.st8{fill:none;stroke:#1C272E;stroke-miterlimit:10;}
	.st9{opacity:0.5;}
	.st10{opacity:0.75;fill:#D8D8D8;}
	.st11{opacity:0.75;}
	.st12{fill:none;stroke:#F8AD1A;stroke-miterlimit:10;}
	.st13{fill:none;stroke:#FFFFFF;stroke-miterlimit:10;}
	.st14{opacity:0.75;fill:#F8AD1A;}
	.st15{fill:#E6DFDF;}
	.st16{fill:none;stroke:#F8AD1A;stroke-width:2;stroke-miterlimit:10;}
	.st17{fill:#EFEFEF;}
	.st18{fill-rule:evenodd;clip-rule:evenodd;fill:#EFEFEF;}
	.st19{fill:none;stroke:#FFFFFF;stroke-width:3;stroke-linejoin:round;stroke-miterlimit:10;}
	.st20{opacity:0.5;fill:#1C272E;}
	.st21{opacity:0.3;fill:#1C272E;}
	.st22{opacity:0.1;fill:#1C272E;}
	.st23{fill-rule:evenodd;clip-rule:evenodd;fill:#003E71;}
	.st24{clip-path:url(#SVGID_14_);fill:#935099;}
	.st25{clip-path:url(#SVGID_14_);fill:#005176;}
	.st26{clip-path:url(#SVGID_14_);fill:#004C88;}
	.st27{clip-path:url(#SVGID_14_);fill:#004488;}
	.st28{clip-path:url(#SVGID_14_);fill:#86519B;}
	.st29{clip-path:url(#SVGID_14_);fill:#663F91;}
	.st30{clip-path:url(#SVGID_14_);fill:#BF77AF;}
	.st31{clip-path:url(#SVGID_14_);fill:#C478AF;}
	.st32{clip-path:url(#SVGID_14_);fill:#006B9A;}
	.st33{clip-path:url(#SVGID_14_);fill:#004B71;}
	.st34{clip-path:url(#SVGID_14_);fill:#86539C;}
	.st35{clip-path:url(#SVGID_14_);fill:#673F91;}
	.st36{clip-path:url(#SVGID_14_);fill:#801B7A;}
	.st37{clip-path:url(#SVGID_14_);fill:#C52C87;}
	.st38{clip-path:url(#SVGID_14_);fill:#BF73AC;}
	.st39{clip-path:url(#SVGID_14_);fill:#A87AB3;}
	.st40{clip-path:url(#SVGID_14_);fill:#005A80;}
	.st41{clip-path:url(#SVGID_14_);fill:#003857;}
	.st42{clip-path:url(#SVGID_14_);fill:#3D338A;}
	.st43{clip-path:url(#SVGID_14_);fill:#821B7A;}
	.st44{clip-path:url(#SVGID_14_);fill:#854F9A;}
	.st45{clip-path:url(#SVGID_14_);fill:#002643;}
	.st46{clip-path:url(#SVGID_14_);fill:#00314E;}
	.st47{clip-path:url(#SVGID_14_);fill:#006A98;}
	.st48{clip-path:url(#SVGID_14_);fill:#002C4B;}
	.st49{clip-path:url(#SVGID_14_);fill:#2B2B85;}
	.st50{clip-path:url(#SVGID_14_);fill:#C22F88;}
	.st51{clip-path:url(#SVGID_14_);fill:#7A1F80;}
	.st52{clip-path:url(#SVGID_14_);fill:#408DAA;}
	.st53{clip-path:url(#SVGID_14_);fill:#005D80;}
	.st54{clip-path:url(#SVGID_14_);fill:#003962;}
	.st55{clip-path:url(#SVGID_14_);fill:#00375F;}
	.st56{clip-path:url(#SVGID_14_);fill:#00448C;}
	.st57{clip-path:url(#SVGID_14_);fill:#003D6E;}
	.st58{clip-path:url(#SVGID_14_);fill:#006B9C;}
	.st59{clip-path:url(#SVGID_14_);fill:#004682;}
	.st60{clip-path:url(#SVGID_14_);fill:#00587E;}
	.st61{clip-path:url(#SVGID_14_);fill:#004079;}
	.st62{clip-path:url(#SVGID_14_);fill:#006093;}
	.st63{clip-path:url(#SVGID_14_);fill:#005B8E;}
	.st64{clip-path:url(#SVGID_14_);fill:#004083;}
	.st65{clip-path:url(#SVGID_14_);fill:#002D4E;}
	.st66{clip-path:url(#SVGID_14_);fill:#006B97;}
	.st67{clip-path:url(#SVGID_14_);fill:#097EB4;}
	.st68{clip-path:url(#SVGID_14_);fill:#00466A;}
	.st69{clip-path:url(#SVGID_14_);fill:#006397;}
	.st70{clip-path:url(#SVGID_14_);fill:#22195A;}
	.st71{clip-path:url(#SVGID_14_);fill:#030D2A;}
	.st72{clip-path:url(#SVGID_14_);fill:#002F4E;}
	.st73{clip-path:url(#SVGID_14_);fill:#00284F;}
	.st74{clip-path:url(#SVGID_14_);fill:#003C78;}
	.st75{clip-path:url(#SVGID_14_);fill:#00254B;}
	.st76{clip-path:url(#SVGID_14_);fill:#002E55;}
	.st77{fill-rule:evenodd;clip-rule:evenodd;fill:#AF0B62;}
	.st78{clip-path:url(#SVGID_16_);fill:#935099;}
	.st79{clip-path:url(#SVGID_16_);fill:#C7599C;}
	.st80{clip-path:url(#SVGID_16_);fill:#B20A60;}
	.st81{clip-path:url(#SVGID_16_);fill:#CA589B;}
	.st82{clip-path:url(#SVGID_16_);fill:#A61963;}
	.st83{clip-path:url(#SVGID_16_);fill:#E95498;}
	.st84{clip-path:url(#SVGID_16_);fill:#C52B5E;}
	.st85{clip-path:url(#SVGID_16_);fill:#AF0B62;}
	.st86{clip-path:url(#SVGID_16_);fill:#BA77AF;}
	.st87{clip-path:url(#SVGID_16_);fill:#E94F80;}
	.st88{clip-path:url(#SVGID_16_);fill:#E51C40;}
	.st89{clip-path:url(#SVGID_16_);fill:#CE599C;}
	.st90{clip-path:url(#SVGID_16_);fill:#BC0D4A;}
	.st91{clip-path:url(#SVGID_16_);fill:#9B043E;}
	.st92{clip-path:url(#SVGID_16_);fill:#D787B8;}
	.st93{clip-path:url(#SVGID_16_);fill:#E94D8F;}
	.st94{clip-path:url(#SVGID_16_);fill:#E94F8D;}
	.st95{clip-path:url(#SVGID_16_);fill:#CC579B;}
	.st96{clip-path:url(#SVGID_16_);fill:#C02859;}
	.st97{clip-path:url(#SVGID_16_);fill:#B20A62;}
	.st98{clip-path:url(#SVGID_16_);fill:#C50828;}
	.st99{clip-path:url(#SVGID_16_);fill:#E94F8E;}
	.st100{clip-path:url(#SVGID_16_);fill:#E94E94;}
	.st101{clip-path:url(#SVGID_16_);fill:#B7094C;}
	.st102{clip-path:url(#SVGID_16_);fill:#A10440;}
	.st103{clip-path:url(#SVGID_16_);fill:#C078AF;}
	.st104{clip-path:url(#SVGID_16_);fill:#CC569A;}
	.st105{clip-path:url(#SVGID_16_);fill:#E94D7F;}
	.st106{clip-path:url(#SVGID_16_);fill:#E9528E;}
	.st107{clip-path:url(#SVGID_16_);fill:#D81A38;}
	.st108{clip-path:url(#SVGID_16_);fill:#AC1F07;}
	.st109{clip-path:url(#SVGID_16_);fill:#C6338A;}
	.st110{clip-path:url(#SVGID_16_);fill:#BF77AF;}
	.st111{clip-path:url(#SVGID_16_);fill:#D984B6;}
	.st112{clip-path:url(#SVGID_16_);fill:#E94F7C;}
	.st113{clip-path:url(#SVGID_16_);fill:#D83368;}
	.st114{clip-path:url(#SVGID_16_);fill:#BA210A;}
	.st115{clip-path:url(#SVGID_16_);fill:#C30922;}
	.st116{clip-path:url(#SVGID_16_);fill:#854A97;}
	.st117{clip-path:url(#SVGID_16_);fill:#E37FB0;}
	.st118{clip-path:url(#SVGID_16_);fill:#E47CAF;}
	.st119{clip-path:url(#SVGID_16_);fill:#D10048;}
	.st120{fill-rule:evenodd;clip-rule:evenodd;fill:#F8AE00;}
	.st121{fill-rule:evenodd;clip-rule:evenodd;fill:#5FB12E;}
	.st122{clip-path:url(#SVGID_18_);fill:#935099;}
	.st123{clip-path:url(#SVGID_18_);fill:#C7599C;}
	.st124{clip-path:url(#SVGID_18_);fill:#B20A60;}
	.st125{clip-path:url(#SVGID_18_);fill:#CA589B;}
	.st126{clip-path:url(#SVGID_18_);fill:#A61963;}
	.st127{clip-path:url(#SVGID_18_);fill:#E95498;}
	.st128{clip-path:url(#SVGID_18_);fill:#C52B5E;}
	.st129{clip-path:url(#SVGID_18_);fill:#AF0B62;}
	.st130{clip-path:url(#SVGID_18_);fill:#BA77AF;}
	.st131{clip-path:url(#SVGID_18_);fill:#E94F80;}
	.st132{clip-path:url(#SVGID_18_);fill:#E51C40;}
	.st133{clip-path:url(#SVGID_18_);fill:#CE599C;}
	.st134{clip-path:url(#SVGID_18_);fill:#BC0D4A;}
	.st135{clip-path:url(#SVGID_18_);fill:#9B043E;}
	.st136{clip-path:url(#SVGID_18_);fill:#D787B8;}
	.st137{clip-path:url(#SVGID_18_);fill:#E94D8F;}
	.st138{clip-path:url(#SVGID_18_);fill:#E94F8D;}
	.st139{clip-path:url(#SVGID_18_);fill:#CC579B;}
	.st140{clip-path:url(#SVGID_18_);fill:#C02859;}
	.st141{clip-path:url(#SVGID_18_);fill:#B20A62;}
	.st142{clip-path:url(#SVGID_18_);fill:#C50828;}
	.st143{clip-path:url(#SVGID_18_);fill:#E94F8E;}
	.st144{clip-path:url(#SVGID_18_);fill:#E94E94;}
	.st145{clip-path:url(#SVGID_18_);fill:#B7094C;}
	.st146{clip-path:url(#SVGID_18_);fill:#A10440;}
	.st147{clip-path:url(#SVGID_18_);fill:#C078AF;}
	.st148{clip-path:url(#SVGID_18_);fill:#CC569A;}
	.st149{clip-path:url(#SVGID_18_);fill:#E94D7F;}
	.st150{clip-path:url(#SVGID_18_);fill:#E9528E;}
	.st151{clip-path:url(#SVGID_18_);fill:#D81A38;}
	.st152{clip-path:url(#SVGID_18_);fill:#AC1F07;}
	.st153{clip-path:url(#SVGID_18_);fill:#C6338A;}
	.st154{clip-path:url(#SVGID_18_);fill:#BF77AF;}
	.st155{clip-path:url(#SVGID_18_);fill:#D984B6;}
	.st156{clip-path:url(#SVGID_18_);fill:#E94F7C;}
	.st157{clip-path:url(#SVGID_18_);fill:#D83368;}
	.st158{clip-path:url(#SVGID_18_);fill:#BA210A;}
	.st159{clip-path:url(#SVGID_18_);fill:#C30922;}
	.st160{clip-path:url(#SVGID_18_);fill:#854A97;}
	.st161{clip-path:url(#SVGID_18_);fill:#E37FB0;}
	.st162{clip-path:url(#SVGID_18_);fill:#E47CAF;}
	.st163{clip-path:url(#SVGID_18_);fill:#D10048;}
	.st164{clip-path:url(#SVGID_20_);fill:#935099;}
	.st165{clip-path:url(#SVGID_20_);fill:#005176;}
	.st166{clip-path:url(#SVGID_20_);fill:#004C88;}
	.st167{clip-path:url(#SVGID_20_);fill:#004488;}
	.st168{clip-path:url(#SVGID_20_);fill:#86519B;}
	.st169{clip-path:url(#SVGID_20_);fill:#663F91;}
	.st170{clip-path:url(#SVGID_20_);fill:#BF77AF;}
	.st171{clip-path:url(#SVGID_20_);fill:#C478AF;}
	.st172{clip-path:url(#SVGID_20_);fill:#006B9A;}
	.st173{clip-path:url(#SVGID_20_);fill:#004B71;}
	.st174{clip-path:url(#SVGID_20_);fill:#86539C;}
	.st175{clip-path:url(#SVGID_20_);fill:#673F91;}
	.st176{clip-path:url(#SVGID_20_);fill:#801B7A;}
	.st177{clip-path:url(#SVGID_20_);fill:#C52C87;}
	.st178{clip-path:url(#SVGID_20_);fill:#BF73AC;}
	.st179{clip-path:url(#SVGID_20_);fill:#A87AB3;}
	.st180{clip-path:url(#SVGID_20_);fill:#005A80;}
	.st181{clip-path:url(#SVGID_20_);fill:#003857;}
	.st182{clip-path:url(#SVGID_20_);fill:#3D338A;}
	.st183{clip-path:url(#SVGID_20_);fill:#821B7A;}
	.st184{clip-path:url(#SVGID_20_);fill:#854F9A;}
	.st185{clip-path:url(#SVGID_20_);fill:#002643;}
	.st186{clip-path:url(#SVGID_20_);fill:#00314E;}
	.st187{clip-path:url(#SVGID_20_);fill:#006A98;}
	.st188{clip-path:url(#SVGID_20_);fill:#002C4B;}
	.st189{clip-path:url(#SVGID_20_);fill:#2B2B85;}
	.st190{clip-path:url(#SVGID_20_);fill:#C22F88;}
	.st191{clip-path:url(#SVGID_20_);fill:#7A1F80;}
	.st192{clip-path:url(#SVGID_20_);fill:#408DAA;}
	.st193{clip-path:url(#SVGID_20_);fill:#005D80;}
	.st194{clip-path:url(#SVGID_20_);fill:#003962;}
	.st195{clip-path:url(#SVGID_20_);fill:#00375F;}
	.st196{clip-path:url(#SVGID_20_);fill:#00448C;}
	.st197{clip-path:url(#SVGID_20_);fill:#003D6E;}
	.st198{clip-path:url(#SVGID_20_);fill:#006B9C;}
	.st199{clip-path:url(#SVGID_20_);fill:#004682;}
	.st200{clip-path:url(#SVGID_20_);fill:#00587E;}
	.st201{clip-path:url(#SVGID_20_);fill:#004079;}
	.st202{clip-path:url(#SVGID_20_);fill:#006093;}
	.st203{clip-path:url(#SVGID_20_);fill:#005B8E;}
	.st204{clip-path:url(#SVGID_20_);fill:#004083;}
	.st205{clip-path:url(#SVGID_20_);fill:#002D4E;}
	.st206{clip-path:url(#SVGID_20_);fill:#006B97;}
	.st207{clip-path:url(#SVGID_20_);fill:#097EB4;}
	.st208{clip-path:url(#SVGID_20_);fill:#00466A;}
	.st209{clip-path:url(#SVGID_20_);fill:#006397;}
	.st210{clip-path:url(#SVGID_20_);fill:#22195A;}
	.st211{clip-path:url(#SVGID_20_);fill:#030D2A;}
	.st212{clip-path:url(#SVGID_20_);fill:#002F4E;}
	.st213{clip-path:url(#SVGID_20_);fill:#00284F;}
	.st214{clip-path:url(#SVGID_20_);fill:#003C78;}
	.st215{clip-path:url(#SVGID_20_);fill:#00254B;}
	.st216{clip-path:url(#SVGID_20_);fill:#002E55;}
	.st217{clip-path:url(#SVGID_22_);fill:url(#SVGID_23_);}
	.st218{clip-path:url(#SVGID_25_);fill:#935099;}
	.st219{clip-path:url(#SVGID_25_);fill:#005176;}
	.st220{clip-path:url(#SVGID_25_);fill:#004C88;}
	.st221{clip-path:url(#SVGID_25_);fill:#004488;}
	.st222{clip-path:url(#SVGID_25_);fill:#86519B;}
	.st223{clip-path:url(#SVGID_25_);fill:#663F91;}
	.st224{clip-path:url(#SVGID_25_);fill:#BF77AF;}
	.st225{clip-path:url(#SVGID_25_);fill:#C478AF;}
	.st226{clip-path:url(#SVGID_25_);fill:#006B9A;}
	.st227{clip-path:url(#SVGID_25_);fill:#004B71;}
	.st228{clip-path:url(#SVGID_25_);fill:#86539C;}
	.st229{clip-path:url(#SVGID_25_);fill:#673F91;}
	.st230{clip-path:url(#SVGID_25_);fill:#801B7A;}
	.st231{clip-path:url(#SVGID_25_);fill:#C52C87;}
	.st232{clip-path:url(#SVGID_25_);fill:#BF73AC;}
	.st233{clip-path:url(#SVGID_25_);fill:#A87AB3;}
	.st234{clip-path:url(#SVGID_25_);fill:#005A80;}
	.st235{clip-path:url(#SVGID_25_);fill:#003857;}
	.st236{clip-path:url(#SVGID_25_);fill:#3D338A;}
	.st237{clip-path:url(#SVGID_25_);fill:#821B7A;}
	.st238{clip-path:url(#SVGID_25_);fill:#854F9A;}
	.st239{clip-path:url(#SVGID_25_);fill:#002643;}
	.st240{clip-path:url(#SVGID_25_);fill:#00314E;}
	.st241{clip-path:url(#SVGID_25_);fill:#006A98;}
	.st242{clip-path:url(#SVGID_25_);fill:#002C4B;}
	.st243{clip-path:url(#SVGID_25_);fill:#2B2B85;}
	.st244{clip-path:url(#SVGID_25_);fill:#C22F88;}
	.st245{clip-path:url(#SVGID_25_);fill:#7A1F80;}
	.st246{clip-path:url(#SVGID_25_);fill:#408DAA;}
	.st247{clip-path:url(#SVGID_25_);fill:#005D80;}
	.st248{clip-path:url(#SVGID_25_);fill:#003962;}
	.st249{clip-path:url(#SVGID_25_);fill:#00375F;}
	.st250{clip-path:url(#SVGID_25_);fill:#00448C;}
	.st251{clip-path:url(#SVGID_25_);fill:#003D6E;}
	.st252{clip-path:url(#SVGID_25_);fill:#006B9C;}
	.st253{clip-path:url(#SVGID_25_);fill:#004682;}
	.st254{clip-path:url(#SVGID_25_);fill:#00587E;}
	.st255{clip-path:url(#SVGID_25_);fill:#004079;}
	.st256{clip-path:url(#SVGID_25_);fill:#006093;}
	.st257{clip-path:url(#SVGID_25_);fill:#005B8E;}
	.st258{clip-path:url(#SVGID_25_);fill:#004083;}
	.st259{clip-path:url(#SVGID_25_);fill:#002D4E;}
	.st260{clip-path:url(#SVGID_25_);fill:#006B97;}
	.st261{clip-path:url(#SVGID_25_);fill:#097EB4;}
	.st262{clip-path:url(#SVGID_25_);fill:#00466A;}
	.st263{clip-path:url(#SVGID_25_);fill:#006397;}
	.st264{clip-path:url(#SVGID_25_);fill:#22195A;}
	.st265{clip-path:url(#SVGID_25_);fill:#030D2A;}
	.st266{clip-path:url(#SVGID_25_);fill:#002F4E;}
	.st267{clip-path:url(#SVGID_25_);fill:#00284F;}
	.st268{clip-path:url(#SVGID_25_);fill:#003C78;}
	.st269{clip-path:url(#SVGID_25_);fill:#00254B;}
	.st270{clip-path:url(#SVGID_25_);fill:#002E55;}
	.st271{clip-path:url(#SVGID_27_);fill:#935099;}
	.st272{clip-path:url(#SVGID_27_);fill:#C7599C;}
	.st273{clip-path:url(#SVGID_27_);fill:#B20A60;}
	.st274{clip-path:url(#SVGID_27_);fill:#CA589B;}
	.st275{clip-path:url(#SVGID_27_);fill:#A61963;}
	.st276{clip-path:url(#SVGID_27_);fill:#E95498;}
	.st277{clip-path:url(#SVGID_27_);fill:#C52B5E;}
	.st278{clip-path:url(#SVGID_27_);fill:#AF0B62;}
	.st279{clip-path:url(#SVGID_27_);fill:#BA77AF;}
	.st280{clip-path:url(#SVGID_27_);fill:#E94F80;}
	.st281{clip-path:url(#SVGID_27_);fill:#E51C40;}
	.st282{clip-path:url(#SVGID_27_);fill:#CE599C;}
	.st283{clip-path:url(#SVGID_27_);fill:#BC0D4A;}
	.st284{clip-path:url(#SVGID_27_);fill:#9B043E;}
	.st285{clip-path:url(#SVGID_27_);fill:#D787B8;}
	.st286{clip-path:url(#SVGID_27_);fill:#E94D8F;}
	.st287{clip-path:url(#SVGID_27_);fill:#E94F8D;}
	.st288{clip-path:url(#SVGID_27_);fill:#CC579B;}
	.st289{clip-path:url(#SVGID_27_);fill:#C02859;}
	.st290{clip-path:url(#SVGID_27_);fill:#B20A62;}
	.st291{clip-path:url(#SVGID_27_);fill:#C50828;}
	.st292{clip-path:url(#SVGID_27_);fill:#E94F8E;}
	.st293{clip-path:url(#SVGID_27_);fill:#E94E94;}
	.st294{clip-path:url(#SVGID_27_);fill:#B7094C;}
	.st295{clip-path:url(#SVGID_27_);fill:#A10440;}
	.st296{clip-path:url(#SVGID_27_);fill:#C078AF;}
	.st297{clip-path:url(#SVGID_27_);fill:#CC569A;}
	.st298{clip-path:url(#SVGID_27_);fill:#E94D7F;}
	.st299{clip-path:url(#SVGID_27_);fill:#E9528E;}
	.st300{clip-path:url(#SVGID_27_);fill:#D81A38;}
	.st301{clip-path:url(#SVGID_27_);fill:#AC1F07;}
	.st302{clip-path:url(#SVGID_27_);fill:#C6338A;}
	.st303{clip-path:url(#SVGID_27_);fill:#BF77AF;}
	.st304{clip-path:url(#SVGID_27_);fill:#D984B6;}
	.st305{clip-path:url(#SVGID_27_);fill:#E94F7C;}
	.st306{clip-path:url(#SVGID_27_);fill:#D83368;}
	.st307{clip-path:url(#SVGID_27_);fill:#BA210A;}
	.st308{clip-path:url(#SVGID_27_);fill:#C30922;}
	.st309{clip-path:url(#SVGID_27_);fill:#854A97;}
	.st310{clip-path:url(#SVGID_27_);fill:#E37FB0;}
	.st311{clip-path:url(#SVGID_27_);fill:#E47CAF;}
	.st312{clip-path:url(#SVGID_27_);fill:#D10048;}
	.st313{clip-path:url(#SVGID_29_);fill:#935099;}
	.st314{clip-path:url(#SVGID_29_);fill:#C7599C;}
	.st315{clip-path:url(#SVGID_29_);fill:#B20A60;}
	.st316{clip-path:url(#SVGID_29_);fill:#CA589B;}
	.st317{clip-path:url(#SVGID_29_);fill:#A61963;}
	.st318{clip-path:url(#SVGID_29_);fill:#E95498;}
	.st319{clip-path:url(#SVGID_29_);fill:#C52B5E;}
	.st320{clip-path:url(#SVGID_29_);fill:#AF0B62;}
	.st321{clip-path:url(#SVGID_29_);fill:#BA77AF;}
	.st322{clip-path:url(#SVGID_29_);fill:#E94F80;}
	.st323{clip-path:url(#SVGID_29_);fill:#E51C40;}
	.st324{clip-path:url(#SVGID_29_);fill:#CE599C;}
	.st325{clip-path:url(#SVGID_29_);fill:#BC0D4A;}
	.st326{clip-path:url(#SVGID_29_);fill:#9B043E;}
	.st327{clip-path:url(#SVGID_29_);fill:#D787B8;}
	.st328{clip-path:url(#SVGID_29_);fill:#E94D8F;}
	.st329{clip-path:url(#SVGID_29_);fill:#E94F8D;}
	.st330{clip-path:url(#SVGID_29_);fill:#CC579B;}
	.st331{clip-path:url(#SVGID_29_);fill:#C02859;}
	.st332{clip-path:url(#SVGID_29_);fill:#B20A62;}
	.st333{clip-path:url(#SVGID_29_);fill:#C50828;}
	.st334{clip-path:url(#SVGID_29_);fill:#E94F8E;}
	.st335{clip-path:url(#SVGID_29_);fill:#E94E94;}
	.st336{clip-path:url(#SVGID_29_);fill:#B7094C;}
	.st337{clip-path:url(#SVGID_29_);fill:#A10440;}
	.st338{clip-path:url(#SVGID_29_);fill:#C078AF;}
	.st339{clip-path:url(#SVGID_29_);fill:#CC569A;}
	.st340{clip-path:url(#SVGID_29_);fill:#E94D7F;}
	.st341{clip-path:url(#SVGID_29_);fill:#E9528E;}
	.st342{clip-path:url(#SVGID_29_);fill:#D81A38;}
	.st343{clip-path:url(#SVGID_29_);fill:#AC1F07;}
	.st344{clip-path:url(#SVGID_29_);fill:#C6338A;}
	.st345{clip-path:url(#SVGID_29_);fill:#BF77AF;}
	.st346{clip-path:url(#SVGID_29_);fill:#D984B6;}
	.st347{clip-path:url(#SVGID_29_);fill:#E94F7C;}
	.st348{clip-path:url(#SVGID_29_);fill:#D83368;}
	.st349{clip-path:url(#SVGID_29_);fill:#BA210A;}
	.st350{clip-path:url(#SVGID_29_);fill:#C30922;}
	.st351{clip-path:url(#SVGID_29_);fill:#854A97;}
	.st352{clip-path:url(#SVGID_29_);fill:#E37FB0;}
	.st353{clip-path:url(#SVGID_29_);fill:#E47CAF;}
	.st354{clip-path:url(#SVGID_29_);fill:#D10048;}
	.st355{clip-path:url(#SVGID_31_);fill:#935099;}
	.st356{clip-path:url(#SVGID_31_);fill:#005176;}
	.st357{clip-path:url(#SVGID_31_);fill:#004C88;}
	.st358{clip-path:url(#SVGID_31_);fill:#004488;}
	.st359{clip-path:url(#SVGID_31_);fill:#86519B;}
	.st360{clip-path:url(#SVGID_31_);fill:#663F91;}
	.st361{clip-path:url(#SVGID_31_);fill:#BF77AF;}
	.st362{clip-path:url(#SVGID_31_);fill:#C478AF;}
	.st363{clip-path:url(#SVGID_31_);fill:#006B9A;}
	.st364{clip-path:url(#SVGID_31_);fill:#004B71;}
	.st365{clip-path:url(#SVGID_31_);fill:#86539C;}
	.st366{clip-path:url(#SVGID_31_);fill:#673F91;}
	.st367{clip-path:url(#SVGID_31_);fill:#801B7A;}
	.st368{clip-path:url(#SVGID_31_);fill:#C52C87;}
	.st369{clip-path:url(#SVGID_31_);fill:#BF73AC;}
	.st370{clip-path:url(#SVGID_31_);fill:#A87AB3;}
	.st371{clip-path:url(#SVGID_31_);fill:#005A80;}
	.st372{clip-path:url(#SVGID_31_);fill:#003857;}
	.st373{clip-path:url(#SVGID_31_);fill:#3D338A;}
	.st374{clip-path:url(#SVGID_31_);fill:#821B7A;}
	.st375{clip-path:url(#SVGID_31_);fill:#854F9A;}
	.st376{clip-path:url(#SVGID_31_);fill:#002643;}
	.st377{clip-path:url(#SVGID_31_);fill:#00314E;}
	.st378{clip-path:url(#SVGID_31_);fill:#006A98;}
	.st379{clip-path:url(#SVGID_31_);fill:#002C4B;}
	.st380{clip-path:url(#SVGID_31_);fill:#2B2B85;}
	.st381{clip-path:url(#SVGID_31_);fill:#C22F88;}
	.st382{clip-path:url(#SVGID_31_);fill:#7A1F80;}
	.st383{clip-path:url(#SVGID_31_);fill:#408DAA;}
	.st384{clip-path:url(#SVGID_31_);fill:#005D80;}
	.st385{clip-path:url(#SVGID_31_);fill:#003962;}
	.st386{clip-path:url(#SVGID_31_);fill:#00375F;}
	.st387{clip-path:url(#SVGID_31_);fill:#00448C;}
	.st388{clip-path:url(#SVGID_31_);fill:#003D6E;}
	.st389{clip-path:url(#SVGID_31_);fill:#006B9C;}
	.st390{clip-path:url(#SVGID_31_);fill:#004682;}
	.st391{clip-path:url(#SVGID_31_);fill:#00587E;}
	.st392{clip-path:url(#SVGID_31_);fill:#004079;}
	.st393{clip-path:url(#SVGID_31_);fill:#006093;}
	.st394{clip-path:url(#SVGID_31_);fill:#005B8E;}
	.st395{clip-path:url(#SVGID_31_);fill:#004083;}
	.st396{clip-path:url(#SVGID_31_);fill:#002D4E;}
	.st397{clip-path:url(#SVGID_31_);fill:#006B97;}
	.st398{clip-path:url(#SVGID_31_);fill:#097EB4;}
	.st399{clip-path:url(#SVGID_31_);fill:#00466A;}
	.st400{clip-path:url(#SVGID_31_);fill:#006397;}
	.st401{clip-path:url(#SVGID_31_);fill:#22195A;}
	.st402{clip-path:url(#SVGID_31_);fill:#030D2A;}
	.st403{clip-path:url(#SVGID_31_);fill:#002F4E;}
	.st404{clip-path:url(#SVGID_31_);fill:#00284F;}
	.st405{clip-path:url(#SVGID_31_);fill:#003C78;}
	.st406{clip-path:url(#SVGID_31_);fill:#00254B;}
	.st407{clip-path:url(#SVGID_31_);fill:#002E55;}
	.st408{clip-path:url(#SVGID_33_);fill:url(#SVGID_34_);}
	.st409{fill:none;stroke:#FFFFFF;stroke-width:3;stroke-miterlimit:10;}
	.st410{fill:#5DB747;}
	.st411{fill:none;stroke:#1C272E;stroke-width:2;stroke-linecap:round;stroke-miterlimit:10;}
	.st412{fill-rule:evenodd;clip-rule:evenodd;fill:#FFFFFF;}
	.st413{fill-rule:evenodd;clip-rule:evenodd;fill:#0960AC;}
	.st414{fill-rule:evenodd;clip-rule:evenodd;fill:#5EB947;}
	.st415{fill-rule:evenodd;clip-rule:evenodd;fill:#F8AD1A;}
	.st416{fill:#0960AC;}
	.st417{fill-rule:evenodd;clip-rule:evenodd;fill:#1C272E;}
	.st418{fill:#F8AE1B;}
	.st419{fill:#B77604;}
	.st420{fill:#E28F26;}
	.st421{fill:#CB892A;}
</style>
<g>
	<g>
		<path class="st412" d="M95.4,1.9c51.8,0,93.8,42,93.8,93.8c0,51.8-42,93.8-93.8,93.8c-51.8,0-93.8-42-93.8-93.8
			C1.6,43.9,43.6,1.9,95.4,1.9"/>
	</g>
	<g>
		<path class="st413" d="M119.8,159.2l0.1,0.3c-1.2,0.7-2.1,1.4-2.8,2.2c-0.6,0.7-1.1,1.6-1.3,2.4c-0.2,0.9-0.3,1.9-0.3,3.1
			c0.3-0.3,0.5-0.5,0.7-0.7c0.4-0.3,0.9-0.5,1.4-0.6c1.1-0.3,2.1-0.2,3.1,0.4c1,0.6,1.6,1.6,2,2.9c0.3,1,0.3,1.9,0.2,2.8
			c-0.2,0.9-0.5,1.7-1.1,2.4c-0.6,0.7-1.3,1.1-2.1,1.3c-0.9,0.3-1.8,0.3-2.7,0c-0.9-0.3-1.7-0.8-2.4-1.6c-0.7-0.8-1.2-1.8-1.5-2.9
			c-0.5-1.6-0.5-3.3-0.1-4.9c0.4-1.6,1.2-3.1,2.4-4.3C116.3,160.6,117.9,159.7,119.8,159.2 M115.6,168.1c0.2,1,0.4,1.7,0.5,2.2
			c0.3,1,0.7,1.9,1.1,2.8c0.5,0.9,0.9,1.5,1.3,1.7c0.3,0.2,0.6,0.3,1,0.2c0.3-0.1,0.6-0.4,0.7-0.8c0.2-0.5,0.1-1.3-0.3-2.5
			c-0.6-2-1.2-3.3-1.9-3.9c-0.4-0.4-0.9-0.5-1.5-0.4C116.4,167.5,116,167.7,115.6,168.1z M107.4,170.5c0.2,1.5,0.2,2.9-0.1,4.3
			c-0.1,0.8-0.4,1.5-0.8,2.1c-0.4,0.6-0.8,1-1.3,1.4c-0.5,0.4-1.1,0.6-1.7,0.7c-0.7,0.1-1.4,0-2-0.3c-0.6-0.3-1.2-0.8-1.8-1.4
			c-0.4-0.5-0.8-1.1-1.1-1.9c-0.5-1.1-0.8-2.3-0.9-3.5c-0.2-1.6-0.2-3.2,0.1-4.6c0.2-1.2,0.7-2.1,1.4-2.8c0.7-0.7,1.5-1.1,2.3-1.2
			c0.9-0.1,1.7,0.1,2.6,0.6c0.8,0.5,1.5,1.2,2,2.2C106.8,167.4,107.2,168.9,107.4,170.5z M104,170.9c-0.3-2.7-0.5-4.2-0.6-4.6
			c-0.2-1-0.5-1.7-0.8-2c-0.2-0.2-0.5-0.3-0.9-0.2c-0.3,0-0.6,0.2-0.7,0.4c-0.2,0.3-0.4,0.8-0.4,1.4c0,0.7,0.2,3,0.7,6.9
			c0.3,2.1,0.5,3.6,0.7,4.3c0.2,0.5,0.4,0.8,0.6,1c0.2,0.1,0.5,0.2,0.9,0.2c0.4,0,0.6-0.2,0.8-0.5c0.3-0.5,0.4-1.1,0.3-2L104,170.9z
			 M93.1,171.8c-0.1,1.5-0.5,2.9-1,4.2c-0.3,0.8-0.7,1.4-1.2,1.9c-0.5,0.5-1,0.8-1.6,1.1c-0.6,0.3-1.2,0.4-1.8,0.3
			c-0.7-0.1-1.4-0.3-1.9-0.7c-0.6-0.4-1-1-1.4-1.7c-0.3-0.5-0.5-1.2-0.7-2.1c-0.2-1.2-0.3-2.4-0.2-3.6c0.1-1.6,0.5-3.1,1.1-4.5
			c0.5-1.1,1.1-1.9,2-2.5c0.8-0.5,1.7-0.8,2.5-0.7c0.9,0.1,1.7,0.5,2.4,1.1c0.7,0.7,1.2,1.5,1.5,2.6
			C93.1,168.6,93.2,170.2,93.1,171.8z M89.6,171.5c0.2-2.7,0.4-4.2,0.4-4.7c0-1-0.1-1.8-0.4-2.2c-0.2-0.3-0.5-0.4-0.9-0.4
			c-0.3,0-0.6,0-0.8,0.2c-0.3,0.2-0.5,0.7-0.7,1.3c-0.2,0.6-0.4,2.9-0.7,6.9c-0.2,2.1-0.2,3.6-0.2,4.3c0.1,0.5,0.2,0.9,0.4,1.1
			c0.2,0.2,0.5,0.3,0.8,0.3c0.4,0,0.7-0.1,0.9-0.3c0.3-0.4,0.6-1,0.7-1.9L89.6,171.5z M75.5,177.4l-8.6-2.5l0.1-0.2
			c3.5-2.4,5.8-4,6.6-5c0.9-0.9,1.5-1.9,1.8-2.9c0.2-0.8,0.2-1.5-0.2-2.1c-0.3-0.6-0.8-1.1-1.5-1.2c-1.1-0.3-2.1,0-3.1,0.9l-0.4-0.3
			c0.8-1.3,1.7-2.1,2.7-2.6c1-0.4,2-0.5,3-0.2c0.7,0.2,1.4,0.6,1.9,1.1c0.5,0.5,0.9,1.1,1,1.8c0.2,0.7,0.2,1.3,0,1.8
			c-0.3,1-0.8,1.8-1.6,2.7c-1.1,1.1-3.2,2.5-6.4,4.2l3.2,0.9c0.8,0.2,1.3,0.3,1.5,0.3c0.2,0,0.5-0.1,0.7-0.2
			c0.2-0.1,0.5-0.4,0.9-0.8l0.4,0.1L75.5,177.4z"/>
	</g>
	<g>
		<path class="st414" d="M141.9,134.4c-11,13.4-27.6,22-46.3,22c-33,0-59.7-26.8-59.7-59.9c0-6.7,1.1-13.2,3.1-19.2
			c3.3-1.3,6.8,0.2,8.2,1.9c1.3,1.7,3.9,1.4,3.9-0.6c-0.8-9.3,0.6-15.4,3.6-19C66,83.8,77.5,106.6,100,120.1
			c10.5,7.6,27.5,9.7,40,7.3c-0.7,1.6-1.6,3.3-2,4.9C137.8,133.6,139.1,134.1,141.9,134.4"/>
	</g>
	<g>
		<path class="st413" d="M95.7,36.6c33,0,59.7,26.8,59.7,59.9c0,5.5-0.8,10.9-2.2,16c-1.1-1.1-3.2-2.8-6.1-2.4
			c-9.5,1.6-14.9,2.1-24.7,1.5c-12.9-0.8-25.7-7.3-35.1-16.3C74.6,83.5,68,66.6,63.3,53.3c-0.5-2.2-1.1-4.3-1.9-5.9
			C71.2,40.6,82.9,36.6,95.7,36.6"/>
	</g>
	<g>
		<path class="st415" d="M39.1,75.8c2.5-1.9,8.1,0.9,10,2.9c-0.9-7.5,0.2-14.8,4.7-21.1c0.9-1,1.5-0.6,1.9,0.5
			c7.8,19.5,17.9,34.6,28.5,47.3c11.8,12.2,25.5,22,48,21.1c3.5-0.3,6.4-0.5,9.7-1c-0.4,2.8-1.3,5-2.5,6.9c2.1-0.4,4.1,0.3,5.7,3.9
			c1.4,0.5,9-13.2,7.7-20.8c-0.7-2.5-2.4-4-5.5-3.7c-11.2,2.4-22.5,2.4-32.3,0.4c-25.5-5.7-39.2-24.8-47.8-44.1
			c-1.7-4.3-3.5-8.6-5.3-14c-0.8-2.6-1.1-4.5-2.1-6.3c-1.9-3.7-4.6-3.5-7.8-1C44.5,52.6,37.7,69.3,39.1,75.8"/>
	</g>
	<g>
		<g>
			<path class="st416" d="M180.4,106.5c0,0.3-0.2,0.6-0.5,0.8c-0.3,0.2-0.6,0.3-0.9,0.2c-0.3,0-0.6-0.2-0.8-0.5s-0.3-0.6-0.2-0.9
				c0-0.3,0.2-0.6,0.5-0.8c0.3-0.2,0.6-0.3,0.9-0.2c0.3,0,0.6,0.2,0.8,0.5C180.3,105.9,180.4,106.2,180.4,106.5 M165.7,107.6l-0.3,0
				l0.7-5.9l0.3,0l0,0.4c0,0.3,0,0.6,0.1,0.8c0.1,0.2,0.2,0.3,0.4,0.4c0.1,0.1,0.5,0.2,1,0.2l7.4,0.9c0.6,0.1,0.9,0.1,1.1,0.1
				c0.2,0,0.3-0.2,0.4-0.3c0.1-0.2,0.2-0.4,0.3-0.7l0-0.4l0.3,0l-0.7,5.9l-0.3,0l0-0.4c0-0.3,0-0.6-0.1-0.8
				c-0.1-0.1-0.2-0.3-0.4-0.4c-0.1-0.1-0.5-0.2-1-0.2l-7.4-0.9c-0.6-0.1-0.9-0.1-1.1,0c-0.2,0-0.3,0.2-0.4,0.3
				c-0.1,0.2-0.2,0.4-0.3,0.7L165.7,107.6z M178,99l-3.8,0.2l0-0.3c0.9-0.2,1.7-0.6,2.3-1.3c0.6-0.7,0.8-1.3,0.8-2.1
				c0-0.6-0.2-1-0.5-1.3c-0.3-0.3-0.7-0.5-1.1-0.5c-0.2,0-0.5,0.1-0.7,0.2c-0.3,0.2-0.5,0.4-0.8,0.8c-0.2,0.3-0.5,0.9-0.9,1.8
				c-0.6,1.3-1.2,2.3-1.8,2.7c-0.6,0.5-1.2,0.7-2,0.7c-0.9,0-1.8-0.3-2.5-1.1c-0.7-0.7-1.1-1.6-1.1-2.8c0-0.4,0-0.7,0.1-1
				c0.1-0.3,0.2-0.7,0.4-1.2c0.1-0.3,0.2-0.5,0.1-0.7c0-0.1-0.1-0.3-0.2-0.5c-0.1-0.2-0.3-0.3-0.5-0.4l0-0.3l4.3-0.1l0,0.3
				c-1.2,0.3-2.1,0.8-2.7,1.5c-0.6,0.7-0.9,1.5-0.9,2.3c0,0.6,0.2,1.1,0.5,1.5c0.3,0.4,0.7,0.5,1.2,0.5c0.3,0,0.5-0.1,0.8-0.2
				c0.2-0.2,0.5-0.4,0.7-0.7c0.2-0.3,0.5-0.8,0.8-1.6c0.5-1,0.9-1.8,1.2-2.3c0.3-0.5,0.7-0.8,1.2-1.1c0.4-0.3,0.9-0.4,1.4-0.4
				c0.9,0,1.7,0.3,2.3,0.9c0.7,0.6,1,1.5,1,2.5c0,0.4,0,0.7-0.1,1.1c-0.1,0.3-0.2,0.6-0.3,1c-0.2,0.4-0.3,0.6-0.2,0.8
				c0,0.1,0,0.3,0.1,0.3c0.1,0.1,0.3,0.2,0.6,0.2L178,99z M175.5,81.1l-4.9,0.9l0.1,0.5c0.1,0.8,0.3,1.3,0.5,1.7
				c0.2,0.4,0.5,0.6,0.9,0.8c0.4,0.2,0.9,0.2,1.5,0.1c0.8-0.2,1.4-0.5,1.8-0.9c0.3-0.5,0.4-1.1,0.3-2L175.5,81.1z M170.1,82
				l-3.2,0.6c-0.6,0.1-1,0.2-1.1,0.3c-0.1,0.1-0.2,0.3-0.3,0.5c-0.1,0.2,0,0.6,0,1.1l-0.3,0.1l-1-5.7l0.3,0c0.1,0.5,0.2,0.9,0.3,1
				c0.1,0.2,0.3,0.3,0.4,0.3c0.2,0,0.6,0,1.2-0.1l7.3-1.3c0.6-0.1,1-0.2,1.1-0.3c0.1-0.1,0.2-0.3,0.3-0.5c0.1-0.2,0-0.6,0-1.1
				l0.3-0.1l0.9,5.2c0.2,1.4,0.3,2.4,0.2,3c-0.1,0.7-0.3,1.2-0.8,1.7c-0.4,0.5-1,0.8-1.7,0.9c-0.8,0.1-1.6,0-2.2-0.5
				c-0.4-0.3-0.8-0.8-1.1-1.5l-3.3,3.4c-0.4,0.4-0.7,0.7-0.8,0.9c-0.1,0.3-0.2,0.5-0.1,0.8l-0.3,0.1l-0.6-3.5l4.4-4.5L170.1,82z
				 M171.9,68l-4.4,1.5l0.1,0.2c0.2,0.7,0.6,1.1,1.1,1.3c0.5,0.2,1.2,0.1,2.1-0.1l0.1,0.3l-5.6,1.9l-0.1-0.3
				c0.6-0.3,1.1-0.6,1.4-0.9c0.3-0.3,0.5-0.7,0.5-1c0-0.3,0-0.7-0.2-1.2l-3,1c-0.6,0.2-0.9,0.3-1.1,0.4c-0.1,0.1-0.2,0.2-0.2,0.4
				c0,0.2,0,0.4,0.1,0.7l0.2,0.6c0.3,1,0.8,1.7,1.5,2.2c0.7,0.5,1.5,0.6,2.6,0.6l0.1,0.3l-3.6,0.7l-3.1-9.3l0.3-0.1l0.1,0.4
				c0.1,0.3,0.2,0.5,0.4,0.7c0.1,0.1,0.3,0.2,0.5,0.2c0.1,0,0.5-0.1,1-0.2l7.1-2.4c0.5-0.2,0.8-0.3,0.9-0.3c0.2-0.1,0.3-0.3,0.3-0.4
				c0.1-0.3,0.1-0.6-0.1-0.9l-0.1-0.4l0.3-0.1l3,9l-3.2,1.1l-0.1-0.3c0.7-0.4,1.2-0.8,1.5-1.2c0.2-0.4,0.4-0.9,0.3-1.4
				c0-0.3-0.1-0.9-0.4-1.7L171.9,68z M169.6,60.7l-0.2,0.1c-0.3-0.3-0.6-0.5-1.1-0.6c-0.4-0.1-1.1,0-2.2,0.1l-9.5,1l-0.1-0.2
				l5.9-7.9c0.7-0.9,1.1-1.5,1.2-1.8c0.1-0.2,0-0.6-0.1-1l0.2-0.1l2.7,4.7l-0.3,0.1L166,55c-0.2-0.4-0.5-0.7-0.7-0.8
				c-0.1-0.1-0.3-0.1-0.4,0c-0.1,0-0.2,0.1-0.3,0.2c-0.1,0.1-0.3,0.4-0.7,0.9l-3.7,4.9l5.5-0.6c0.7-0.1,1.1-0.1,1.3-0.2
				c0.2,0,0.4-0.1,0.5-0.2c0.1-0.1,0.3-0.2,0.3-0.3c0.1-0.1,0.1-0.3,0.1-0.5c0-0.3-0.2-0.6-0.4-0.9l0.3-0.1L169.6,60.7z M162.7,43.7
				c0.2,0.3,0.3,0.6,0.2,0.9c0,0.3-0.2,0.6-0.5,0.8c-0.3,0.2-0.6,0.3-0.9,0.3c-0.3,0-0.6-0.2-0.8-0.5c-0.2-0.3-0.3-0.6-0.2-0.9
				c0-0.3,0.2-0.6,0.5-0.8c0.3-0.2,0.6-0.3,0.9-0.3C162.2,43.3,162.4,43.4,162.7,43.7z M153.2,54.9l-0.2,0.2l-3.7-4.6l0.2-0.2
				l0.2,0.3c0.2,0.3,0.4,0.4,0.6,0.5c0.2,0.1,0.3,0.1,0.5,0c0.1,0,0.4-0.2,0.9-0.6l5.9-4.6c0.5-0.4,0.7-0.6,0.8-0.8
				c0.1-0.1,0.1-0.3,0.1-0.5c0-0.2-0.1-0.4-0.3-0.7l-0.2-0.3l0.2-0.2l3.7,4.6l-0.2,0.2l-0.2-0.3c-0.2-0.3-0.4-0.4-0.6-0.5
				c-0.2-0.1-0.3-0.1-0.5,0c-0.1,0-0.4,0.2-0.9,0.6l-5.9,4.6c-0.5,0.4-0.7,0.6-0.8,0.8c-0.1,0.1-0.1,0.3-0.1,0.5
				c0,0.2,0.1,0.4,0.3,0.7L153.2,54.9z M150.8,35.8l-0.8,8.9l3.4-3.5c0.5-0.5,0.7-0.9,0.7-1.2c0-0.4-0.2-0.8-0.7-1.3l0.2-0.2
				l2.7,2.6l-0.2,0.2c-0.4-0.3-0.7-0.5-0.9-0.5c-0.2,0-0.4,0-0.6,0.1c-0.2,0.1-0.5,0.3-0.9,0.7l-6.5,6.8l-0.2-0.2l1-12.1l-5,5.2
				c-0.5,0.5-0.7,0.9-0.6,1.3c0.1,0.4,0.2,0.7,0.5,1l0.2,0.2L143,44l-2.9-2.8l0.2-0.2c0.5,0.4,0.9,0.6,1.2,0.6
				c0.4,0,0.7-0.2,1.2-0.7l5.5-5.8l0-0.4c0-0.4,0-0.7,0-0.9c-0.1-0.2-0.2-0.4-0.5-0.7l0.2-0.2L150.8,35.8z M140.8,24
				c0.3,0.2,0.4,0.4,0.5,0.7c0.1,0.3,0,0.6-0.2,0.8c-0.2,0.3-0.4,0.4-0.7,0.5c-0.3,0.1-0.6,0-0.8-0.2c-0.3-0.2-0.4-0.4-0.5-0.7
				c-0.1-0.3,0-0.6,0.1-0.8c0.2-0.3,0.4-0.4,0.7-0.5C140.3,23.8,140.6,23.9,140.8,24z M143.5,25.7c0.3,0.2,0.4,0.4,0.5,0.7
				c0.1,0.3,0,0.6-0.2,0.8c-0.2,0.3-0.4,0.4-0.7,0.5c-0.3,0.1-0.6,0-0.8-0.1c-0.3-0.2-0.4-0.4-0.5-0.7c-0.1-0.3,0-0.6,0.2-0.8
				c0.2-0.3,0.4-0.4,0.7-0.5C142.9,25.5,143.2,25.5,143.5,25.7z M135.5,24.6l4.9,3.2l-0.2,0.2l-0.2-0.2c-0.4-0.2-0.7-0.4-0.8-0.4
				c-0.2,0-0.4,0-0.5,0.1c-0.1,0.1-0.4,0.4-0.7,1l-3,4.7c-0.6,0.9-0.8,1.5-0.9,1.8c0,0.4,0,0.7,0.2,1.1c0.2,0.4,0.5,0.7,0.9,1
				c0.5,0.3,1,0.5,1.5,0.5c0.5,0,1-0.1,1.4-0.4c0.4-0.3,1-0.9,1.6-2l2.5-3.9c0.3-0.4,0.4-0.8,0.5-1c0-0.2,0-0.4-0.1-0.6
				c-0.1-0.2-0.4-0.5-0.8-0.7l0.2-0.2l3.3,2.1l-0.2,0.2l-0.2-0.1c-0.3-0.2-0.5-0.3-0.8-0.3c-0.2,0-0.5,0.1-0.7,0.2
				c-0.2,0.1-0.4,0.4-0.6,0.8l-2.3,3.6c-0.7,1.1-1.3,1.9-1.8,2.3c-0.5,0.4-1.1,0.6-2,0.7c-0.8,0-1.8-0.2-2.7-0.9
				c-0.8-0.5-1.4-1-1.7-1.6c-0.4-0.7-0.6-1.4-0.6-2c0-0.6,0.3-1.3,0.8-2.1l3-4.7c0.4-0.6,0.5-0.9,0.6-1.1c0-0.2,0-0.4-0.1-0.5
				c-0.1-0.2-0.4-0.4-0.8-0.6L135.5,24.6z M120.6,18.2l3,8.5l1.6-4.6c0.2-0.7,0.3-1.1,0.2-1.4c-0.1-0.4-0.5-0.7-1.1-0.9l0.1-0.3
				l3.5,1.2l-0.1,0.3c-0.5-0.1-0.8-0.1-1-0.1c-0.2,0-0.4,0.2-0.5,0.3c-0.2,0.2-0.3,0.5-0.5,1l-3,9l-0.3-0.1l-4.2-11.4l-2.3,6.9
				c-0.2,0.6-0.2,1.1,0,1.4c0.2,0.3,0.5,0.5,0.9,0.7l0.3,0.1L117,29l-3.8-1.3l0.1-0.3c0.6,0.2,1.1,0.2,1.4,0.1
				c0.3-0.2,0.6-0.5,0.8-1.1l2.6-7.6l-0.1-0.4c-0.1-0.4-0.3-0.6-0.4-0.8c-0.1-0.2-0.4-0.3-0.7-0.4l0.1-0.3L120.6,18.2z M107.6,22.8
				l-1-4.1l-2.4,3.5L107.6,22.8z M107.7,23.4l-3.9-0.7l-0.7,1c-0.2,0.3-0.3,0.6-0.4,0.9c-0.1,0.3,0,0.6,0.3,0.8
				c0.1,0.1,0.5,0.2,1.1,0.4l0,0.3l-3.7-0.7l0.1-0.3c0.4,0,0.8-0.1,1.1-0.3c0.3-0.2,0.7-0.7,1.3-1.5l5.6-8.2l0.2,0l2.4,9.9
				c0.2,0.9,0.4,1.6,0.7,1.8c0.2,0.2,0.4,0.4,0.7,0.4l-0.1,0.3l-5.4-1l0.1-0.3l0.2,0c0.4,0.1,0.7,0.1,0.9,0c0.1-0.1,0.2-0.2,0.2-0.3
				c0-0.1,0-0.2,0-0.3c0-0.1,0-0.3-0.1-0.7L107.7,23.4z M91.4,15l0.1,4.9l0.5,0c0.8,0,1.4-0.1,1.7-0.3c0.4-0.2,0.7-0.4,0.9-0.8
				c0.2-0.4,0.3-0.9,0.3-1.5c0-0.9-0.2-1.5-0.7-1.9c-0.4-0.4-1.1-0.6-2-0.6L91.4,15z M91.6,20.5l0.1,3.2c0,0.6,0.1,1,0.1,1.2
				c0.1,0.2,0.2,0.3,0.4,0.4c0.2,0.1,0.6,0.1,1.1,0.1l0,0.3l-5.8,0.1l0-0.3c0.5,0,0.9-0.1,1.1-0.2c0.2-0.1,0.3-0.2,0.4-0.4
				c0.1-0.2,0.1-0.5,0.1-1.2l-0.2-7.4c0-0.6-0.1-1-0.1-1.2c-0.1-0.2-0.2-0.3-0.4-0.4c-0.2-0.1-0.5-0.1-1.1-0.1l0-0.3l5.3-0.1
				c1.4,0,2.4,0,3,0.2c0.6,0.2,1.2,0.5,1.6,1c0.4,0.5,0.6,1.1,0.7,1.8c0,0.8-0.3,1.5-0.9,2.1c-0.4,0.4-0.9,0.6-1.6,0.8l2.8,3.8
				c0.4,0.5,0.6,0.8,0.8,0.9c0.2,0.2,0.5,0.3,0.8,0.3l0,0.3l-3.6,0.1l-3.8-5.1L91.6,20.5z M83.8,14.7l0.1,0.3
				c-0.4,0.2-0.7,0.5-0.9,0.9c-0.2,0.3-0.4,1-0.6,2.2l-1.8,9.3l-0.3,0.1l-5.8-7.9c-0.7-1-1.2-1.5-1.3-1.7c-0.2-0.2-0.5-0.2-1-0.2
				l-0.1-0.3l5.3-1.2l0.1,0.3l-0.2,0c-0.5,0.1-0.8,0.2-0.9,0.4c-0.1,0.1-0.1,0.2-0.1,0.4c0,0.1,0.1,0.2,0.1,0.3
				c0.1,0.1,0.3,0.5,0.7,1l3.6,5l1-5.4c0.1-0.7,0.2-1.1,0.2-1.3c0-0.2,0-0.4,0-0.5c0-0.2-0.1-0.3-0.2-0.4c-0.1-0.1-0.3-0.2-0.5-0.2
				c-0.3,0-0.6,0-1,0.1l-0.1-0.3L83.8,14.7z M63.6,21.2l1.7,4.3l0.2-0.1c0.7-0.3,1.1-0.7,1.2-1.2c0.1-0.5,0.1-1.2-0.2-2.1l0.3-0.1
				l2.2,5.5l-0.3,0.1c-0.3-0.6-0.6-1-1-1.3c-0.4-0.3-0.7-0.5-1-0.5c-0.3,0-0.7,0.1-1.2,0.3l1.2,3c0.2,0.6,0.4,0.9,0.5,1
				c0.1,0.1,0.2,0.2,0.4,0.2c0.2,0,0.4,0,0.7-0.1l0.6-0.2c1-0.4,1.7-0.9,2.1-1.6c0.4-0.7,0.6-1.5,0.5-2.6l0.3-0.1l0.8,3.5l-9.1,3.6
				l-0.1-0.3l0.3-0.1c0.3-0.1,0.5-0.3,0.7-0.5c0.1-0.1,0.2-0.3,0.2-0.5c0-0.1-0.1-0.5-0.3-1l-2.7-7c-0.2-0.5-0.3-0.8-0.4-0.9
				c-0.1-0.2-0.3-0.3-0.5-0.3c-0.3-0.1-0.6,0-0.9,0.1l-0.3,0.1l-0.1-0.3l8.8-3.5l1.2,3.1L69.1,22c-0.5-0.7-0.9-1.2-1.3-1.4
				c-0.4-0.2-0.9-0.3-1.4-0.3c-0.3,0-0.9,0.2-1.7,0.5L63.6,21.2z M48.3,24.9c0.3-0.2,0.6-0.2,0.9-0.2c0.3,0.1,0.6,0.3,0.8,0.5
				c0.2,0.3,0.2,0.6,0.2,0.9c-0.1,0.3-0.2,0.6-0.5,0.8c-0.3,0.2-0.6,0.2-0.9,0.2c-0.3-0.1-0.6-0.3-0.8-0.5c-0.2-0.3-0.2-0.6-0.2-0.9
				C47.8,25.4,48,25.1,48.3,24.9z M58.5,35.4l0.2,0.2l-5,3.2l-0.2-0.2l0.3-0.2c0.3-0.2,0.5-0.4,0.6-0.6c0.1-0.1,0.1-0.3,0.1-0.5
				c0-0.1-0.2-0.5-0.5-0.9l-4-6.3c-0.3-0.5-0.5-0.8-0.7-0.9c-0.1-0.1-0.3-0.1-0.5-0.1c-0.2,0-0.5,0.1-0.7,0.3l-0.3,0.2l-0.2-0.2
				l5-3.2l0.2,0.2l-0.3,0.2c-0.3,0.2-0.5,0.4-0.6,0.6c-0.1,0.1-0.1,0.3-0.1,0.5c0,0.1,0.2,0.5,0.5,0.9l4,6.3
				c0.3,0.5,0.5,0.8,0.7,0.9c0.1,0.1,0.3,0.1,0.5,0.1c0.2,0,0.5-0.1,0.7-0.3L58.5,35.4z M42.8,40.9l2.3,2.7c0.4,0.4,0.6,0.7,0.8,0.8
				c0.1,0.1,0.3,0.1,0.5,0c0.2,0,0.4-0.2,0.7-0.4l0.3-0.2l0.2,0.2l-4.5,3.9l-0.2-0.2l0.3-0.2c0.2-0.2,0.4-0.4,0.5-0.7
				c0.1-0.2,0.1-0.3,0-0.5c0-0.1-0.2-0.4-0.6-0.9l-4.9-5.7c-0.4-0.4-0.7-0.7-0.8-0.8c-0.1-0.1-0.3-0.1-0.5,0c-0.2,0-0.4,0.2-0.7,0.4
				l-0.3,0.2l-0.2-0.2l4.5-3.9l0.2,0.2L40,35.8c-0.2,0.2-0.4,0.4-0.5,0.7c-0.1,0.2-0.1,0.3,0,0.5c0,0.1,0.3,0.4,0.6,0.9l2.1,2.4
				l3-2.6l-2.1-2.4c-0.4-0.4-0.6-0.7-0.8-0.8c-0.1-0.1-0.3-0.1-0.5,0c-0.2,0-0.4,0.2-0.7,0.4l-0.3,0.2l-0.2-0.2l4.5-3.9l0.2,0.2
				l-0.3,0.2c-0.2,0.2-0.4,0.4-0.5,0.7c-0.1,0.2-0.1,0.3,0,0.5c0,0.1,0.2,0.4,0.6,0.9l4.9,5.7c0.4,0.4,0.6,0.7,0.8,0.8
				c0.1,0.1,0.3,0.1,0.5,0c0.2,0,0.4-0.2,0.7-0.4l0.3-0.2l0.2,0.2l-4.5,3.9L48,43.2l0.3-0.2c0.2-0.2,0.4-0.4,0.5-0.7
				c0.1-0.2,0.1-0.3,0-0.5c0-0.1-0.2-0.4-0.6-0.9l-2.3-2.7L42.8,40.9z M36.1,50.7L32,49.6l2,3.8L36.1,50.7z M36.8,50.8L34.3,54
				l0.6,1.1c0.2,0.4,0.4,0.6,0.6,0.8c0.3,0.2,0.5,0.2,0.8,0.1c0.2-0.1,0.4-0.3,0.8-0.7l0.2,0.2l-2.3,3l-0.2-0.2
				c0.2-0.4,0.3-0.7,0.2-1.1c-0.1-0.4-0.3-1-0.8-1.8l-4.6-8.8l0.1-0.1l9.8,2.5c0.9,0.2,1.6,0.3,1.9,0.3c0.3,0,0.5-0.2,0.7-0.4
				l0.2,0.2l-3.4,4.3L38.8,53l0.1-0.2c0.3-0.3,0.4-0.6,0.4-0.8c0-0.2-0.1-0.3-0.2-0.4c-0.1-0.1-0.2-0.1-0.3-0.2c0,0-0.3-0.1-0.7-0.2
				L36.8,50.8z M20,64.6l4.5,2l0.2-0.4c0.3-0.7,0.5-1.3,0.5-1.7c0-0.4-0.1-0.8-0.3-1.1s-0.6-0.7-1.2-0.9c-0.8-0.4-1.4-0.4-2-0.2
				c-0.5,0.2-1,0.7-1.4,1.5L20,64.6z M25,66.9l2.9,1.3c0.6,0.2,0.9,0.4,1.1,0.4c0.2,0,0.3-0.1,0.5-0.2c0.2-0.1,0.4-0.4,0.6-0.9
				l0.3,0.1L28,72.9l-0.3-0.1c0.2-0.5,0.3-0.8,0.3-1c0-0.2-0.1-0.4-0.2-0.5c-0.1-0.1-0.4-0.3-1-0.6l-6.8-3.1
				c-0.6-0.3-0.9-0.4-1.1-0.4c-0.2,0-0.3,0.1-0.5,0.2c-0.2,0.1-0.4,0.4-0.6,0.9l-0.3-0.1l2.2-4.8c0.6-1.3,1.1-2.1,1.5-2.6
				c0.4-0.5,1-0.8,1.6-1c0.6-0.2,1.3-0.1,1.9,0.2c0.8,0.3,1.3,0.9,1.5,1.7c0.2,0.5,0.2,1.1,0,1.8l4.6-0.9c0.6-0.1,1-0.2,1.2-0.3
				c0.2-0.1,0.4-0.3,0.6-0.6l0.3,0.1L31.6,65l-6.2,1.2L25,66.9z M12.8,73.1c0.1-0.3,0.3-0.6,0.6-0.7c0.3-0.2,0.6-0.2,0.9-0.1
				c0.3,0.1,0.6,0.3,0.7,0.6c0.2,0.3,0.2,0.6,0.1,0.9c-0.1,0.3-0.3,0.6-0.6,0.7c-0.3,0.2-0.6,0.2-0.9,0.1c-0.3-0.1-0.6-0.3-0.7-0.6
				C12.8,73.7,12.7,73.4,12.8,73.1z M27.5,74.2l0.3,0.1l-1.6,5.7l-0.3-0.1l0.1-0.4c0.1-0.3,0.1-0.6,0-0.8c0-0.2-0.1-0.3-0.3-0.4
				c-0.1-0.1-0.4-0.2-1-0.4l-7.2-2c-0.6-0.2-0.9-0.2-1.1-0.2c-0.2,0-0.3,0.1-0.5,0.2c-0.2,0.1-0.3,0.4-0.4,0.7l-0.1,0.4l-0.3-0.1
				l1.6-5.7l0.3,0.1L17,71.6c-0.1,0.3-0.1,0.6,0,0.8c0,0.2,0.1,0.3,0.3,0.4c0.1,0.1,0.4,0.2,1,0.4l7.2,2c0.6,0.2,0.9,0.2,1.1,0.2
				c0.2,0,0.3-0.1,0.5-0.3c0.2-0.1,0.3-0.4,0.4-0.7L27.5,74.2z M19.1,88.7l3.5,0.4c0.6,0.1,0.9,0.1,1.1,0c0.2,0,0.3-0.2,0.4-0.3
				c0.1-0.2,0.2-0.4,0.3-0.7l0-0.4l0.3,0L24,93.7l-0.3,0l0-0.4c0-0.3,0-0.6-0.1-0.8c-0.1-0.2-0.2-0.3-0.4-0.4
				c-0.1-0.1-0.5-0.2-1-0.2l-7.4-0.9c-0.6-0.1-1-0.1-1.1,0c-0.2,0-0.3,0.1-0.4,0.3c-0.1,0.2-0.2,0.4-0.3,0.7l0,0.4l-0.3,0l0.7-5.9
				l0.3,0l0,0.4c0,0.3,0,0.6,0.1,0.8c0.1,0.2,0.2,0.3,0.4,0.4c0.1,0.1,0.5,0.2,1,0.2l3.2,0.4l0.5-4l-3.2-0.4c-0.6-0.1-0.9-0.1-1.1,0
				c-0.2,0-0.3,0.1-0.4,0.3c-0.1,0.2-0.2,0.4-0.3,0.7l0,0.4l-0.3,0l0.7-5.9l0.3,0l0,0.4c0,0.3,0,0.6,0.1,0.8
				c0.1,0.2,0.2,0.3,0.4,0.4c0.1,0.1,0.5,0.1,1,0.2l7.4,0.9c0.6,0.1,0.9,0.1,1.1,0.1c0.2,0,0.3-0.2,0.4-0.3c0.1-0.2,0.2-0.4,0.3-0.7
				l0-0.4l0.3,0L24.9,87l-0.3,0l0-0.4c0-0.3,0-0.6-0.1-0.8c-0.1-0.2-0.2-0.3-0.4-0.4c-0.1-0.1-0.5-0.2-1-0.2l-3.5-0.4L19.1,88.7z
				 M13.7,102.2l4.6-0.3l0-0.2c-0.1-0.7-0.3-1.2-0.8-1.5c-0.5-0.3-1.2-0.4-2-0.5l0-0.3l5.9-0.5l0,0.3c-0.6,0.1-1.2,0.3-1.6,0.5
				c-0.4,0.2-0.7,0.5-0.8,0.8c-0.1,0.3-0.2,0.7-0.1,1.3l3.2-0.2c0.6,0,1-0.1,1.1-0.2c0.1-0.1,0.2-0.2,0.3-0.3
				c0.1-0.2,0.1-0.4,0.1-0.7l-0.1-0.7c-0.1-1.1-0.4-1.9-0.9-2.5c-0.5-0.6-1.3-1-2.3-1.2l0-0.3l3.6,0.2l0.7,9.8l-0.3,0l0-0.4
				c0-0.3-0.1-0.6-0.2-0.8c-0.1-0.1-0.2-0.2-0.4-0.3c-0.1,0-0.5-0.1-1.1,0l-7.5,0.6c-0.5,0-0.8,0.1-0.9,0.1
				c-0.2,0.1-0.3,0.2-0.4,0.3c-0.1,0.2-0.2,0.5-0.2,0.9l0,0.4l-0.3,0l-0.7-9.5l3.3-0.3l0,0.3c-0.8,0.2-1.4,0.5-1.7,0.8
				c-0.3,0.3-0.6,0.7-0.7,1.3c-0.1,0.3-0.1,0.9,0,1.8L13.7,102.2z M25.7,111.3l-0.1-0.5l0.7,0.2c0-0.3,0.1-0.6,0.2-0.8
				c0.2-0.2,0.4-0.4,0.7-0.5c0.3-0.1,0.6,0,0.8,0.1c0.3,0.1,0.5,0.3,0.6,0.5c0.2,0.4,0.4,1,0.6,1.8l-0.4,0.1c-0.2-0.5-0.3-0.9-0.5-1
				c-0.2-0.2-0.4-0.2-0.7-0.1c-0.2,0-0.3,0.1-0.4,0.3c-0.1,0.2-0.1,0.4,0,0.6L25.7,111.3z M13.7,110.7l3.7-0.9l0.1,0.3
				c-0.9,0.4-1.5,0.9-2,1.7c-0.4,0.8-0.5,1.5-0.4,2.2c0.1,0.6,0.4,1,0.7,1.2c0.4,0.3,0.7,0.3,1.1,0.3c0.2-0.1,0.4-0.2,0.6-0.3
				c0.2-0.2,0.4-0.5,0.6-0.9c0.1-0.3,0.3-1,0.5-2c0.3-1.4,0.7-2.5,1.2-3c0.5-0.6,1.1-1,1.8-1.1c0.9-0.2,1.8,0,2.6,0.5
				c0.8,0.6,1.4,1.4,1.6,2.5c0.1,0.3,0.1,0.7,0.1,1c0,0.3,0,0.7-0.1,1.3c0,0.3,0,0.5,0,0.7c0,0.1,0.1,0.3,0.3,0.4
				c0.1,0.1,0.3,0.2,0.6,0.3l0.1,0.3l-4.2,1l-0.1-0.3c1.1-0.5,1.9-1.2,2.4-2c0.5-0.8,0.6-1.6,0.4-2.4c-0.1-0.6-0.4-1.1-0.8-1.3
				c-0.4-0.3-0.8-0.4-1.3-0.3c-0.3,0.1-0.5,0.2-0.7,0.4c-0.2,0.2-0.4,0.5-0.6,0.8c-0.2,0.3-0.3,0.9-0.5,1.7
				c-0.3,1.1-0.5,1.9-0.8,2.5c-0.2,0.5-0.6,0.9-0.9,1.3c-0.4,0.3-0.8,0.6-1.3,0.7c-0.9,0.2-1.7,0.1-2.5-0.5
				c-0.8-0.5-1.3-1.2-1.5-2.2c-0.1-0.4-0.1-0.7-0.1-1.1c0-0.3,0.1-0.6,0.1-1c0.1-0.4,0.1-0.7,0.1-0.8c0-0.1-0.1-0.2-0.2-0.3
				c-0.1-0.1-0.3-0.1-0.7-0.1L13.7,110.7z M19.7,127.8l4.6-1.8l-0.2-0.4c-0.3-0.7-0.6-1.2-0.8-1.5c-0.3-0.3-0.6-0.5-1.1-0.6
				c-0.4-0.1-0.9,0-1.5,0.2c-0.8,0.3-1.3,0.7-1.6,1.3c-0.2,0.5-0.2,1.2,0.1,2L19.7,127.8z M24.8,125.8l3-1.2c0.6-0.2,0.9-0.4,1-0.5
				c0.1-0.1,0.2-0.3,0.2-0.5c0-0.2-0.1-0.6-0.3-1l0.3-0.1l2.1,5.4l-0.3,0.1c-0.2-0.5-0.4-0.8-0.5-0.9c-0.2-0.1-0.3-0.2-0.5-0.2
				c-0.2,0-0.5,0.1-1.1,0.3l-6.9,2.7c-0.6,0.2-0.9,0.4-1,0.5c-0.1,0.1-0.2,0.3-0.2,0.5c0,0.2,0.1,0.6,0.3,1l-0.3,0.1l-1.9-4.9
				c-0.5-1.3-0.8-2.2-0.8-2.9c-0.1-0.7,0.1-1.3,0.4-1.8c0.3-0.6,0.8-1,1.5-1.2c0.8-0.3,1.5-0.3,2.3,0.1c0.5,0.2,0.9,0.6,1.3,1.2
				l2.6-3.9c0.3-0.5,0.5-0.9,0.6-1.1c0.1-0.3,0.1-0.6,0-0.8l0.3-0.1l1.3,3.3l-3.5,5.3L24.8,125.8z M31.6,129.1l0.2-0.1l2.9,5.1
				l-0.2,0.1l-0.2-0.3c-0.2-0.3-0.3-0.5-0.5-0.6c-0.1-0.1-0.3-0.1-0.5-0.1c-0.1,0-0.5,0.2-1,0.5l-6.5,3.7c-0.5,0.3-0.8,0.5-0.9,0.6
				c-0.1,0.1-0.1,0.3-0.1,0.5c0,0.2,0.1,0.5,0.2,0.7l0.2,0.3l-0.3,0.1l-2.9-5.1l0.3-0.2l0.2,0.3c0.2,0.3,0.3,0.5,0.5,0.6
				c0.1,0.1,0.3,0.1,0.5,0.1c0.1,0,0.5-0.2,1-0.5l6.5-3.7c0.5-0.3,0.8-0.5,0.9-0.6c0.1-0.1,0.1-0.3,0.1-0.5c0-0.2-0.1-0.5-0.2-0.7
				L31.6,129.1z M33.4,144.2l1.5-6.2c0.2-0.9,0.3-1.6,0.2-2c0-0.3-0.2-0.6-0.4-0.9l0.2-0.2l3.6,4.6l-0.2,0.2
				c-0.3-0.3-0.5-0.4-0.6-0.5c-0.1,0-0.2,0-0.4,0.1c-0.2,0.1-0.4,0.6-0.6,1.4l-1,4.1l0.5,0.1l2.4-1.9c0.5-0.4,0.7-0.6,0.8-0.8
				c0.1-0.1,0.1-0.3,0.1-0.5c0-0.2-0.2-0.5-0.4-0.8l0.2-0.2l3.5,4.5l-0.2,0.2l-0.2-0.3c-0.2-0.3-0.4-0.4-0.6-0.5
				c-0.2-0.1-0.3-0.1-0.5,0c-0.1,0-0.4,0.2-0.9,0.6l-5.9,4.6c-0.5,0.4-0.7,0.6-0.8,0.7c-0.1,0.1-0.1,0.3-0.1,0.5
				c0,0.2,0.1,0.4,0.3,0.7l0.2,0.3l-0.2,0.2l-3.5-4.4l0.2-0.2c0.2,0.3,0.5,0.5,0.7,0.6c0.2,0.1,0.3,0.1,0.5,0c0.2,0,0.5-0.2,0.9-0.6
				l2.8-2.2l-5.3-1.2c-0.7-0.2-1.2-0.1-1.5,0c-0.2,0.1-0.2,0.3-0.2,0.6c0,0.1,0.2,0.4,0.5,0.8l-0.2,0.2l-2.7-3.5l0.2-0.2
				c0.3,0.3,0.5,0.5,0.7,0.6c0.2,0.1,0.9,0.3,1.9,0.5L33.4,144.2z"/>
		</g>
		<g>
			<path class="st416" d="M160.8,151.8c-0.2,0.3-0.5,0.4-0.8,0.4c-0.3,0-0.6-0.1-0.9-0.3c-0.3-0.2-0.4-0.5-0.4-0.8
				c0-0.3,0.1-0.6,0.3-0.9c0.2-0.3,0.5-0.4,0.8-0.4c0.3,0,0.6,0.1,0.9,0.3c0.3,0.2,0.4,0.5,0.4,0.8
				C161.1,151.3,161,151.6,160.8,151.8 M148,144.6l-0.2-0.2l3.9-4.5l0.2,0.2l-0.2,0.3c-0.2,0.2-0.3,0.5-0.4,0.7c0,0.2,0,0.3,0.1,0.5
				c0.1,0.1,0.3,0.4,0.7,0.8l5.7,4.9c0.4,0.4,0.7,0.6,0.9,0.6c0.2,0.1,0.3,0,0.5,0c0.2-0.1,0.4-0.2,0.6-0.5l0.2-0.3l0.2,0.2
				l-3.9,4.5l-0.2-0.2l0.2-0.3c0.2-0.2,0.3-0.5,0.4-0.7c0-0.2,0-0.3-0.1-0.5c-0.1-0.1-0.3-0.4-0.7-0.8l-5.7-4.9
				c-0.4-0.4-0.7-0.6-0.9-0.6c-0.2,0-0.3,0-0.5,0c-0.2,0.1-0.4,0.2-0.6,0.5L148,144.6z M162.9,144.3l-3.2-2l0.2-0.3
				c0.9,0.4,1.7,0.5,2.6,0.2c0.8-0.2,1.4-0.6,1.8-1.3c0.3-0.5,0.4-0.9,0.3-1.4c-0.1-0.4-0.3-0.8-0.6-1c-0.2-0.1-0.4-0.2-0.7-0.2
				c-0.3,0-0.7,0.1-1.1,0.2c-0.3,0.1-0.9,0.5-1.8,1c-1.3,0.8-2.3,1.2-3,1.3c-0.7,0.1-1.4-0.1-2-0.5c-0.8-0.5-1.3-1.3-1.5-2.3
				c-0.2-1,0-2,0.7-2.9c0.2-0.3,0.4-0.6,0.6-0.8c0.2-0.2,0.6-0.5,1-0.8c0.2-0.2,0.4-0.3,0.5-0.5c0.1-0.1,0.1-0.3,0.1-0.5
				c0-0.2-0.1-0.4-0.2-0.6l0.2-0.2l3.6,2.3l-0.2,0.3c-1.1-0.4-2.2-0.5-3.1-0.3c-0.9,0.2-1.6,0.7-2,1.4c-0.3,0.5-0.5,1-0.4,1.5
				c0.1,0.5,0.3,0.9,0.7,1.1c0.2,0.1,0.5,0.2,0.8,0.2c0.3,0,0.6,0,1-0.2c0.3-0.1,0.9-0.4,1.6-0.8c1-0.6,1.7-1,2.3-1.2
				c0.5-0.2,1.1-0.3,1.6-0.2c0.5,0,1,0.2,1.4,0.5c0.8,0.5,1.2,1.2,1.4,2.1c0.2,0.9,0,1.8-0.6,2.6c-0.2,0.3-0.4,0.6-0.7,0.8
				c-0.2,0.2-0.5,0.4-0.8,0.6c-0.4,0.2-0.6,0.4-0.7,0.5c-0.1,0.1-0.1,0.2-0.1,0.4c0,0.1,0.2,0.3,0.4,0.5L162.9,144.3z M170.3,129
				l-4.2-1.9l-0.1,0.2c-0.3,0.7-0.3,1.2,0,1.7c0.3,0.5,0.8,0.9,1.6,1.4l-0.1,0.3l-5.4-2.4l0.1-0.3c0.6,0.2,1.2,0.3,1.6,0.3
				c0.5,0,0.8-0.1,1.1-0.3c0.2-0.2,0.5-0.6,0.7-1l-2.9-1.3c-0.6-0.3-0.9-0.4-1.1-0.4c-0.2,0-0.3,0-0.4,0.1c-0.1,0.1-0.3,0.3-0.4,0.6
				l-0.3,0.6c-0.4,1-0.6,1.8-0.4,2.6c0.2,0.8,0.7,1.5,1.5,2.2l-0.1,0.3l-3.1-1.9l4-8.9l0.3,0.1l-0.2,0.3c-0.1,0.3-0.2,0.6-0.2,0.8
				c0,0.2,0.1,0.3,0.2,0.5c0.1,0.1,0.4,0.3,0.9,0.5l6.8,3.1c0.5,0.2,0.8,0.3,0.9,0.4c0.2,0,0.4,0,0.5-0.1c0.2-0.1,0.4-0.4,0.6-0.7
				l0.2-0.3l0.3,0.1l-3.9,8.6l-3.1-1.4l0.1-0.3c0.8,0.2,1.4,0.2,1.9,0.1c0.4-0.1,0.9-0.4,1.2-0.8c0.2-0.2,0.5-0.8,0.9-1.5L170.3,129
				z M174,121.7l-3-0.7l0.1-0.3c0.7,0,1.3-0.1,1.6-0.2c0.4-0.1,0.7-0.4,0.9-0.7c0.2-0.2,0.3-0.5,0.4-1.1l0.2-0.8l-8.5-2
				c-0.6-0.1-0.9-0.2-1.1-0.2c-0.2,0-0.3,0.1-0.4,0.3c-0.2,0.2-0.3,0.4-0.3,0.7l-0.1,0.4l-0.3-0.1l1.3-5.8l0.3,0.1l-0.1,0.4
				c-0.1,0.3-0.1,0.6,0,0.8c0,0.2,0.2,0.3,0.3,0.4c0.1,0.1,0.5,0.2,1,0.3l8.5,2l0.2-0.8c0.2-0.7,0.1-1.3-0.1-1.7
				c-0.3-0.6-0.9-1-1.7-1.3l0.1-0.3l3,0.7L174,121.7z"/>
		</g>
	</g>
	<g>
		<path class="st413" d="M95.5,0C148.2,0,191,42.8,191,95.5c0,52.7-42.8,95.5-95.5,95.5S0,148.2,0,95.5C0,42.8,42.8,0,95.5,0
			 M95.5,3.4c50.9,0,92.1,41.2,92.1,92.1c0,50.9-41.2,92.1-92.1,92.1S3.4,146.4,3.4,95.5C3.4,44.6,44.6,3.4,95.5,3.4z"/>
	</g>
</g>
</svg>
